<?xml version="1.0" encoding="UTF-8" standalone="no"?>
<!-- Created with Inkscape (http://www.inkscape.org/) -->

<svg
   version="1.1"
   id="svg1"
   width="423.59894"
   height="98.933075"
   viewBox="0 0 423.59894 98.933075"
   xmlns="http://www.w3.org/2000/svg"
   xmlns:svg="http://www.w3.org/2000/svg">
  <defs
     id="defs1" />
  <g
     id="layer2"
     transform="translate(-38.200539,-75.533463)">
    <path
       d="m 126.25871,-61.333177 q 5.33332,0 10.53331,1.599996 5.33332,1.466663 9.59997,4.799988 4.39999,3.199992 7.06665,8.266646 2.66666,5.066653 2.66666,12.133302 0,5.33332 -1.59999,10.399973 -1.6,4.933321 -5.19999,8.933311 -3.59999,3.99999 -9.33331,6.3999835 -5.73332,2.3999939 -14.1333,2.3999939 H 111.19208 V 33.333248 h -6.53331 v -94.666425 z m -0.8,48.666543 q 7.06665,0 11.73331,-1.999995 4.66665,-1.999995 7.33331,-5.199987 2.66666,-3.199992 3.73333,-6.933316 1.19999,-3.866656 1.19999,-7.466647 0,-4.266656 -1.59999,-7.99998 -1.46667,-3.733323 -4.39999,-6.533316 -2.93333,-2.933326 -7.06665,-4.533322 -4.13332,-1.733329 -9.19998,-1.733329 h -15.99996 v 42.399892 z m 13.59997,2.9333255 26.2666,43.0665565 H 157.7253 L 131.32537,-9.5999755 Z"
       id="text3-2-1"
       style="font-weight:300;font-size:133.333px;line-height:0;font-family:'Josefin Sans';-inkscape-font-specification:'Josefin Sans Light';text-align:center;letter-spacing:12px;direction:rtl;white-space:pre;fill:#000000;stroke:#ffffff;stroke-width:0;paint-order:markers fill stroke"
       transform="translate(296.47418,138.99996)"
       aria-label="R" />
    <path
       d="m 83.392148,-13.866631 q 0,-9.999975 3.733324,-18.666619 3.733324,-8.799978 10.399974,-15.466627 6.666654,-6.799983 15.333294,-10.533307 8.79998,-3.866657 18.79995,-3.866657 9.99998,0 18.79995,3.866657 8.79998,3.733324 15.46663,10.533307 6.66665,6.666649 10.39997,15.466627 3.86666,8.666644 3.86666,18.666619 0,9.9999742 -3.86666,18.7999517 -3.73332,8.6666443 -10.39997,15.3332943 -6.66665,6.666649 -15.46663,10.399973 -8.79997,3.733324 -18.79995,3.733324 -9.99997,0 -18.79995,-3.599991 Q 104.1921,27.19993 97.525446,20.666614 90.858796,14.133297 87.125472,5.3333197 83.392148,-3.4666578 83.392148,-13.866631 Z m 6.66665,0.133333 q 0,8.6666443 3.199992,16.2666249 3.199992,7.5999801 8.93331,13.3332991 5.73332,5.733319 13.19997,9.066644 7.59998,3.199991 16.13329,3.199991 8.79998,0 16.39996,-3.199991 7.59998,-3.333325 13.3333,-9.066644 5.73331,-5.733319 8.93331,-13.3332991 3.33332,-7.5999806 3.33332,-16.3999579 0,-8.666645 -3.33332,-16.266625 -3.2,-7.733314 -8.93331,-13.466633 -5.73332,-5.866651 -13.3333,-9.199976 -7.59998,-3.333325 -16.26663,-3.333325 -8.79998,0 -16.39996,3.466658 -7.59998,3.333325 -13.3333,9.199976 -5.599981,5.866652 -8.799973,13.599966 -3.066659,7.59998 -3.066659,16.133292 z"
       id="text3-2"
       style="font-weight:300;font-size:133.333px;line-height:0;font-family:'Josefin Sans';-inkscape-font-specification:'Josefin Sans Light';text-align:center;letter-spacing:12px;direction:rtl;white-space:pre;fill:#f7a720;stroke:#ffffff;stroke-width:0;paint-order:markers fill stroke"
       transform="translate(185.40081,138.99996)"
       aria-label="O" />
    <path
       d="m 171.25852,35.599909 -74.666471,-84.133118 1.733328,-1.33333 0.133333,83.199787 h -6.399983 v -96.666419 h 0.399999 l 74.666474,84.799783 -1.73333,0.533332 -0.13333,-83.333121 h 6.26665 v 96.933086 z"
       id="text3"
       style="font-weight:300;font-size:133.333px;line-height:0;font-family:'Josefin Sans';-inkscape-font-specification:'Josefin Sans Light';text-align:center;letter-spacing:12px;direction:rtl;text-anchor:middle;white-space:pre;fill:#000000;stroke:#ffffff;stroke-width:0;paint-order:markers fill stroke"
       transform="translate(60.693642,138.86663)"
       aria-label="N" />
    <path
       d="m 179.96395,33.333248 39.99989,-98.799747 h 0.53334 l 39.99989,98.799747 h -7.33331 l -34.79991,-88.399774 4.53332,-2.533327 -36.39991,90.933101 z m 19.33328,-37.4665708 h 41.99989 l 1.86667,6.1333177 h -45.46656 z"
       id="text2"
       style="font-weight:300;font-size:133.333px;line-height:0;font-family:'Josefin Sans';-inkscape-font-specification:'Josefin Sans Light';text-align:center;letter-spacing:12px;direction:rtl;text-anchor:middle;white-space:pre;fill:#000000;stroke:#ffffff;stroke-width:0;paint-order:markers fill stroke"
       transform="translate(-141.76341,141.06663)"
       aria-label="A" />
  </g>
  <g
     id="layer3"
     transform="translate(-38.200539,-75.533463)">
    <path
       style="fill:none;stroke:#f7a720;stroke-width:4.13962;stroke-linecap:round;stroke-linejoin:miter;stroke-dasharray:none;stroke-opacity:1"
       d="m 270.17657,153.38679 c 0,0 -50.79895,13.64565 0.44473,-14.48099 51.2437,-28.12667 110.78278,-39.19252 113.21028,-37.90849 2.42748,1.28404 1.10421,7.86996 -14.65565,14.06416"
       id="path3" />
  </g>
</svg>
